<mxfile host="app.diagrams.net" modified="2024-04-30T12:56:25.760Z" agent="Mozilla/5.0 (Windows NT 10.0; Win64; x64) AppleWebKit/537.36 (KHTML, like Gecko) Chrome/124.0.0.0 Safari/537.36 Edg/124.0.0.0" etag="rxEoSTbA3c977us8ZoRD" version="24.3.1" type="device">
  <diagram name="Page-1" id="JjzKXwM8gPf1W-OvN8i8">
    <mxGraphModel dx="1957" dy="632" grid="1" gridSize="10" guides="1" tooltips="1" connect="1" arrows="1" fold="1" page="1" pageScale="1" pageWidth="850" pageHeight="1100" math="0" shadow="0">
      <root>
        <mxCell id="0" />
        <mxCell id="1" parent="0" />
        <mxCell id="-TOhHkjBpiTDN5X-7kr8-4" style="edgeStyle=orthogonalEdgeStyle;rounded=0;orthogonalLoop=1;jettySize=auto;html=1;exitX=0.5;exitY=1;exitDx=0;exitDy=0;entryX=0.5;entryY=0;entryDx=0;entryDy=0;" parent="1" source="-TOhHkjBpiTDN5X-7kr8-2" target="-TOhHkjBpiTDN5X-7kr8-3" edge="1">
          <mxGeometry relative="1" as="geometry" />
        </mxCell>
        <mxCell id="-TOhHkjBpiTDN5X-7kr8-2" value="Start" style="ellipse;whiteSpace=wrap;html=1;" parent="1" vertex="1">
          <mxGeometry x="360" y="40" width="120" height="80" as="geometry" />
        </mxCell>
        <mxCell id="-TOhHkjBpiTDN5X-7kr8-5" style="edgeStyle=orthogonalEdgeStyle;rounded=0;orthogonalLoop=1;jettySize=auto;html=1;exitX=0;exitY=0.5;exitDx=0;exitDy=0;entryX=0.5;entryY=0;entryDx=0;entryDy=0;" parent="1" source="-TOhHkjBpiTDN5X-7kr8-3" target="-TOhHkjBpiTDN5X-7kr8-7" edge="1">
          <mxGeometry relative="1" as="geometry">
            <mxPoint x="70" y="190" as="targetPoint" />
          </mxGeometry>
        </mxCell>
        <mxCell id="-TOhHkjBpiTDN5X-7kr8-6" style="edgeStyle=orthogonalEdgeStyle;rounded=0;orthogonalLoop=1;jettySize=auto;html=1;exitX=1;exitY=0.5;exitDx=0;exitDy=0;entryX=0.5;entryY=0;entryDx=0;entryDy=0;" parent="1" source="-TOhHkjBpiTDN5X-7kr8-3" target="-TOhHkjBpiTDN5X-7kr8-10" edge="1">
          <mxGeometry relative="1" as="geometry">
            <mxPoint x="790" y="190" as="targetPoint" />
          </mxGeometry>
        </mxCell>
        <mxCell id="-TOhHkjBpiTDN5X-7kr8-8" style="edgeStyle=orthogonalEdgeStyle;rounded=0;orthogonalLoop=1;jettySize=auto;html=1;exitX=0;exitY=0.5;exitDx=0;exitDy=0;entryX=0.5;entryY=0;entryDx=0;entryDy=0;" parent="1" source="-TOhHkjBpiTDN5X-7kr8-3" target="-TOhHkjBpiTDN5X-7kr8-9" edge="1">
          <mxGeometry relative="1" as="geometry">
            <mxPoint x="230" y="230" as="targetPoint" />
          </mxGeometry>
        </mxCell>
        <mxCell id="-TOhHkjBpiTDN5X-7kr8-12" style="edgeStyle=orthogonalEdgeStyle;rounded=0;orthogonalLoop=1;jettySize=auto;html=1;exitX=1;exitY=0.5;exitDx=0;exitDy=0;entryX=0.5;entryY=0;entryDx=0;entryDy=0;" parent="1" source="-TOhHkjBpiTDN5X-7kr8-3" target="-TOhHkjBpiTDN5X-7kr8-11" edge="1">
          <mxGeometry relative="1" as="geometry" />
        </mxCell>
        <mxCell id="-TOhHkjBpiTDN5X-7kr8-24" style="edgeStyle=orthogonalEdgeStyle;rounded=0;orthogonalLoop=1;jettySize=auto;html=1;exitX=1;exitY=0;exitDx=0;exitDy=0;entryX=0.145;entryY=1;entryDx=0;entryDy=-4.35;entryPerimeter=0;" parent="1" source="-TOhHkjBpiTDN5X-7kr8-3" target="-TOhHkjBpiTDN5X-7kr8-25" edge="1">
          <mxGeometry relative="1" as="geometry">
            <mxPoint x="550" y="90" as="targetPoint" />
          </mxGeometry>
        </mxCell>
        <mxCell id="-TOhHkjBpiTDN5X-7kr8-26" value="Authenticate" style="edgeLabel;html=1;align=center;verticalAlign=middle;resizable=0;points=[];" parent="-TOhHkjBpiTDN5X-7kr8-24" vertex="1" connectable="0">
          <mxGeometry x="0.0035" y="-2" relative="1" as="geometry">
            <mxPoint x="1" y="1" as="offset" />
          </mxGeometry>
        </mxCell>
        <mxCell id="-TOhHkjBpiTDN5X-7kr8-3" value="Login Screen" style="rounded=0;whiteSpace=wrap;html=1;" parent="1" vertex="1">
          <mxGeometry x="360" y="160" width="120" height="60" as="geometry" />
        </mxCell>
        <mxCell id="-TOhHkjBpiTDN5X-7kr8-13" style="edgeStyle=orthogonalEdgeStyle;rounded=0;orthogonalLoop=1;jettySize=auto;html=1;exitX=0.25;exitY=1;exitDx=0;exitDy=0;entryX=0;entryY=0.5;entryDx=0;entryDy=0;" parent="1" source="-TOhHkjBpiTDN5X-7kr8-7" target="-TOhHkjBpiTDN5X-7kr8-14" edge="1">
          <mxGeometry relative="1" as="geometry">
            <mxPoint x="10" y="550" as="targetPoint" />
            <Array as="points">
              <mxPoint x="10" y="380" />
            </Array>
          </mxGeometry>
        </mxCell>
        <mxCell id="-TOhHkjBpiTDN5X-7kr8-15" style="edgeStyle=orthogonalEdgeStyle;rounded=0;orthogonalLoop=1;jettySize=auto;html=1;exitX=0.25;exitY=1;exitDx=0;exitDy=0;entryX=0;entryY=0.5;entryDx=0;entryDy=0;" parent="1" source="-TOhHkjBpiTDN5X-7kr8-7" target="-TOhHkjBpiTDN5X-7kr8-16" edge="1">
          <mxGeometry relative="1" as="geometry">
            <mxPoint x="10" y="470" as="targetPoint" />
            <Array as="points">
              <mxPoint x="10" y="520" />
            </Array>
          </mxGeometry>
        </mxCell>
        <mxCell id="-TOhHkjBpiTDN5X-7kr8-7" value="Admin" style="rounded=0;whiteSpace=wrap;html=1;" parent="1" vertex="1">
          <mxGeometry x="-20" y="260" width="120" height="60" as="geometry" />
        </mxCell>
        <mxCell id="k0PD_N6KNMe-3F-BwP-U-20" style="edgeStyle=orthogonalEdgeStyle;rounded=0;orthogonalLoop=1;jettySize=auto;html=1;exitX=0.5;exitY=1;exitDx=0;exitDy=0;entryX=1;entryY=0.5;entryDx=0;entryDy=0;" edge="1" parent="1" source="-TOhHkjBpiTDN5X-7kr8-9" target="k0PD_N6KNMe-3F-BwP-U-3">
          <mxGeometry relative="1" as="geometry" />
        </mxCell>
        <mxCell id="k0PD_N6KNMe-3F-BwP-U-21" style="edgeStyle=orthogonalEdgeStyle;rounded=0;orthogonalLoop=1;jettySize=auto;html=1;exitX=0.5;exitY=1;exitDx=0;exitDy=0;entryX=0;entryY=0.5;entryDx=0;entryDy=0;" edge="1" parent="1" source="-TOhHkjBpiTDN5X-7kr8-9" target="-TOhHkjBpiTDN5X-7kr8-18">
          <mxGeometry relative="1" as="geometry" />
        </mxCell>
        <mxCell id="k0PD_N6KNMe-3F-BwP-U-22" style="edgeStyle=orthogonalEdgeStyle;rounded=0;orthogonalLoop=1;jettySize=auto;html=1;exitX=0.5;exitY=1;exitDx=0;exitDy=0;entryX=1;entryY=0.5;entryDx=0;entryDy=0;" edge="1" parent="1" source="-TOhHkjBpiTDN5X-7kr8-9" target="k0PD_N6KNMe-3F-BwP-U-4">
          <mxGeometry relative="1" as="geometry" />
        </mxCell>
        <mxCell id="k0PD_N6KNMe-3F-BwP-U-23" style="edgeStyle=orthogonalEdgeStyle;rounded=0;orthogonalLoop=1;jettySize=auto;html=1;exitX=0.5;exitY=1;exitDx=0;exitDy=0;entryX=0;entryY=0.5;entryDx=0;entryDy=0;" edge="1" parent="1" source="-TOhHkjBpiTDN5X-7kr8-9" target="-TOhHkjBpiTDN5X-7kr8-20">
          <mxGeometry relative="1" as="geometry" />
        </mxCell>
        <mxCell id="k0PD_N6KNMe-3F-BwP-U-24" style="edgeStyle=orthogonalEdgeStyle;rounded=0;orthogonalLoop=1;jettySize=auto;html=1;exitX=0.5;exitY=1;exitDx=0;exitDy=0;entryX=1;entryY=0.5;entryDx=0;entryDy=0;" edge="1" parent="1" source="-TOhHkjBpiTDN5X-7kr8-9" target="k0PD_N6KNMe-3F-BwP-U-5">
          <mxGeometry relative="1" as="geometry" />
        </mxCell>
        <mxCell id="k0PD_N6KNMe-3F-BwP-U-25" style="edgeStyle=orthogonalEdgeStyle;rounded=0;orthogonalLoop=1;jettySize=auto;html=1;exitX=0.5;exitY=1;exitDx=0;exitDy=0;entryX=0;entryY=0.5;entryDx=0;entryDy=0;" edge="1" parent="1" source="-TOhHkjBpiTDN5X-7kr8-9" target="-TOhHkjBpiTDN5X-7kr8-29">
          <mxGeometry relative="1" as="geometry" />
        </mxCell>
        <mxCell id="k0PD_N6KNMe-3F-BwP-U-26" style="edgeStyle=orthogonalEdgeStyle;rounded=0;orthogonalLoop=1;jettySize=auto;html=1;exitX=0.5;exitY=1;exitDx=0;exitDy=0;entryX=1;entryY=0.5;entryDx=0;entryDy=0;" edge="1" parent="1" source="-TOhHkjBpiTDN5X-7kr8-9" target="k0PD_N6KNMe-3F-BwP-U-6">
          <mxGeometry relative="1" as="geometry" />
        </mxCell>
        <mxCell id="k0PD_N6KNMe-3F-BwP-U-27" style="edgeStyle=orthogonalEdgeStyle;rounded=0;orthogonalLoop=1;jettySize=auto;html=1;exitX=0.5;exitY=1;exitDx=0;exitDy=0;entryX=0;entryY=0.5;entryDx=0;entryDy=0;" edge="1" parent="1" source="-TOhHkjBpiTDN5X-7kr8-9" target="-TOhHkjBpiTDN5X-7kr8-30">
          <mxGeometry relative="1" as="geometry" />
        </mxCell>
        <mxCell id="k0PD_N6KNMe-3F-BwP-U-28" style="edgeStyle=orthogonalEdgeStyle;rounded=0;orthogonalLoop=1;jettySize=auto;html=1;exitX=0.5;exitY=1;exitDx=0;exitDy=0;entryX=1;entryY=0.5;entryDx=0;entryDy=0;" edge="1" parent="1" source="-TOhHkjBpiTDN5X-7kr8-9" target="k0PD_N6KNMe-3F-BwP-U-7">
          <mxGeometry relative="1" as="geometry" />
        </mxCell>
        <mxCell id="k0PD_N6KNMe-3F-BwP-U-29" style="edgeStyle=orthogonalEdgeStyle;rounded=0;orthogonalLoop=1;jettySize=auto;html=1;exitX=0.5;exitY=1;exitDx=0;exitDy=0;entryX=0;entryY=0.5;entryDx=0;entryDy=0;" edge="1" parent="1" source="-TOhHkjBpiTDN5X-7kr8-9" target="k0PD_N6KNMe-3F-BwP-U-2">
          <mxGeometry relative="1" as="geometry" />
        </mxCell>
        <mxCell id="k0PD_N6KNMe-3F-BwP-U-30" style="edgeStyle=orthogonalEdgeStyle;rounded=0;orthogonalLoop=1;jettySize=auto;html=1;exitX=0.5;exitY=1;exitDx=0;exitDy=0;entryX=0;entryY=0.5;entryDx=0;entryDy=0;" edge="1" parent="1" source="-TOhHkjBpiTDN5X-7kr8-9" target="-TOhHkjBpiTDN5X-7kr8-31">
          <mxGeometry relative="1" as="geometry" />
        </mxCell>
        <mxCell id="-TOhHkjBpiTDN5X-7kr8-9" value="HR" style="rounded=0;whiteSpace=wrap;html=1;" parent="1" vertex="1">
          <mxGeometry x="270" y="250" width="120" height="60" as="geometry" />
        </mxCell>
        <mxCell id="-TOhHkjBpiTDN5X-7kr8-45" style="edgeStyle=orthogonalEdgeStyle;rounded=0;orthogonalLoop=1;jettySize=auto;html=1;exitX=0.25;exitY=1;exitDx=0;exitDy=0;entryX=0;entryY=0.5;entryDx=0;entryDy=0;" parent="1" source="-TOhHkjBpiTDN5X-7kr8-10" target="-TOhHkjBpiTDN5X-7kr8-47" edge="1">
          <mxGeometry relative="1" as="geometry">
            <mxPoint x="740" y="380" as="targetPoint" />
          </mxGeometry>
        </mxCell>
        <mxCell id="-TOhHkjBpiTDN5X-7kr8-51" style="edgeStyle=orthogonalEdgeStyle;rounded=0;orthogonalLoop=1;jettySize=auto;html=1;exitX=0.25;exitY=1;exitDx=0;exitDy=0;entryX=0;entryY=0.5;entryDx=0;entryDy=0;" parent="1" source="-TOhHkjBpiTDN5X-7kr8-10" target="-TOhHkjBpiTDN5X-7kr8-48" edge="1">
          <mxGeometry relative="1" as="geometry" />
        </mxCell>
        <mxCell id="-TOhHkjBpiTDN5X-7kr8-53" style="edgeStyle=orthogonalEdgeStyle;rounded=0;orthogonalLoop=1;jettySize=auto;html=1;exitX=0.25;exitY=1;exitDx=0;exitDy=0;entryX=0;entryY=0.5;entryDx=0;entryDy=0;" parent="1" source="-TOhHkjBpiTDN5X-7kr8-10" target="-TOhHkjBpiTDN5X-7kr8-50" edge="1">
          <mxGeometry relative="1" as="geometry" />
        </mxCell>
        <mxCell id="k0PD_N6KNMe-3F-BwP-U-34" style="edgeStyle=orthogonalEdgeStyle;rounded=0;orthogonalLoop=1;jettySize=auto;html=1;exitX=0.25;exitY=1;exitDx=0;exitDy=0;entryX=0;entryY=0.5;entryDx=0;entryDy=0;" edge="1" parent="1" source="-TOhHkjBpiTDN5X-7kr8-10" target="k0PD_N6KNMe-3F-BwP-U-33">
          <mxGeometry relative="1" as="geometry" />
        </mxCell>
        <mxCell id="-TOhHkjBpiTDN5X-7kr8-10" value="Employee" style="rounded=0;whiteSpace=wrap;html=1;" parent="1" vertex="1">
          <mxGeometry x="690" y="260" width="120" height="60" as="geometry" />
        </mxCell>
        <mxCell id="-TOhHkjBpiTDN5X-7kr8-37" style="edgeStyle=orthogonalEdgeStyle;rounded=0;orthogonalLoop=1;jettySize=auto;html=1;exitX=0.25;exitY=1;exitDx=0;exitDy=0;entryX=0;entryY=0.5;entryDx=0;entryDy=0;" parent="1" source="-TOhHkjBpiTDN5X-7kr8-11" target="-TOhHkjBpiTDN5X-7kr8-38" edge="1">
          <mxGeometry relative="1" as="geometry">
            <mxPoint x="530" y="380" as="targetPoint" />
          </mxGeometry>
        </mxCell>
        <mxCell id="-TOhHkjBpiTDN5X-7kr8-42" style="edgeStyle=orthogonalEdgeStyle;rounded=0;orthogonalLoop=1;jettySize=auto;html=1;exitX=0.25;exitY=1;exitDx=0;exitDy=0;entryX=0;entryY=0.5;entryDx=0;entryDy=0;" parent="1" source="-TOhHkjBpiTDN5X-7kr8-11" target="-TOhHkjBpiTDN5X-7kr8-39" edge="1">
          <mxGeometry relative="1" as="geometry" />
        </mxCell>
        <mxCell id="-TOhHkjBpiTDN5X-7kr8-43" style="edgeStyle=orthogonalEdgeStyle;rounded=0;orthogonalLoop=1;jettySize=auto;html=1;exitX=0.25;exitY=1;exitDx=0;exitDy=0;entryX=0;entryY=0.5;entryDx=0;entryDy=0;" parent="1" source="-TOhHkjBpiTDN5X-7kr8-11" target="-TOhHkjBpiTDN5X-7kr8-40" edge="1">
          <mxGeometry relative="1" as="geometry" />
        </mxCell>
        <mxCell id="-TOhHkjBpiTDN5X-7kr8-44" style="edgeStyle=orthogonalEdgeStyle;rounded=0;orthogonalLoop=1;jettySize=auto;html=1;exitX=0.25;exitY=1;exitDx=0;exitDy=0;entryX=0;entryY=0.5;entryDx=0;entryDy=0;" parent="1" source="-TOhHkjBpiTDN5X-7kr8-11" target="-TOhHkjBpiTDN5X-7kr8-41" edge="1">
          <mxGeometry relative="1" as="geometry" />
        </mxCell>
        <mxCell id="-TOhHkjBpiTDN5X-7kr8-11" value="Manager" style="rounded=0;whiteSpace=wrap;html=1;" parent="1" vertex="1">
          <mxGeometry x="480" y="260" width="120" height="60" as="geometry" />
        </mxCell>
        <mxCell id="-TOhHkjBpiTDN5X-7kr8-14" value="Create/Remove Login" style="rounded=0;whiteSpace=wrap;html=1;" parent="1" vertex="1">
          <mxGeometry x="30" y="350" width="120" height="60" as="geometry" />
        </mxCell>
        <mxCell id="-TOhHkjBpiTDN5X-7kr8-62" style="edgeStyle=orthogonalEdgeStyle;rounded=0;orthogonalLoop=1;jettySize=auto;html=1;exitX=0.5;exitY=1;exitDx=0;exitDy=0;entryX=0.5;entryY=0;entryDx=0;entryDy=0;" parent="1" source="-TOhHkjBpiTDN5X-7kr8-16" target="-TOhHkjBpiTDN5X-7kr8-63" edge="1">
          <mxGeometry relative="1" as="geometry">
            <mxPoint x="520" y="840" as="targetPoint" />
            <Array as="points">
              <mxPoint x="90" y="770" />
              <mxPoint x="425" y="770" />
            </Array>
          </mxGeometry>
        </mxCell>
        <mxCell id="-TOhHkjBpiTDN5X-7kr8-16" value="Login as other roles" style="rounded=0;whiteSpace=wrap;html=1;" parent="1" vertex="1">
          <mxGeometry x="30" y="490" width="120" height="60" as="geometry" />
        </mxCell>
        <mxCell id="-TOhHkjBpiTDN5X-7kr8-18" value="Employee Management" style="rounded=0;whiteSpace=wrap;html=1;" parent="1" vertex="1">
          <mxGeometry x="350" y="330" width="120" height="60" as="geometry" />
        </mxCell>
        <mxCell id="-TOhHkjBpiTDN5X-7kr8-20" value="Employee attended hours" style="rounded=0;whiteSpace=wrap;html=1;" parent="1" vertex="1">
          <mxGeometry x="350" y="400" width="120" height="60" as="geometry" />
        </mxCell>
        <mxCell id="-TOhHkjBpiTDN5X-7kr8-27" style="edgeStyle=orthogonalEdgeStyle;rounded=0;orthogonalLoop=1;jettySize=auto;html=1;exitX=0.855;exitY=1;exitDx=0;exitDy=-4.35;exitPerimeter=0;entryX=1;entryY=0.25;entryDx=0;entryDy=0;" parent="1" source="-TOhHkjBpiTDN5X-7kr8-25" target="-TOhHkjBpiTDN5X-7kr8-3" edge="1">
          <mxGeometry relative="1" as="geometry">
            <Array as="points">
              <mxPoint x="590" y="86" />
              <mxPoint x="590" y="175" />
            </Array>
          </mxGeometry>
        </mxCell>
        <mxCell id="-TOhHkjBpiTDN5X-7kr8-28" value="Role" style="edgeLabel;html=1;align=center;verticalAlign=middle;resizable=0;points=[];" parent="-TOhHkjBpiTDN5X-7kr8-27" vertex="1" connectable="0">
          <mxGeometry x="0.2423" y="-3" relative="1" as="geometry">
            <mxPoint as="offset" />
          </mxGeometry>
        </mxCell>
        <mxCell id="-TOhHkjBpiTDN5X-7kr8-25" value="Database" style="shape=cylinder3;whiteSpace=wrap;html=1;boundedLbl=1;backgroundOutline=1;size=15;" parent="1" vertex="1">
          <mxGeometry x="540" y="10" width="60" height="80" as="geometry" />
        </mxCell>
        <mxCell id="-TOhHkjBpiTDN5X-7kr8-29" value="Approve Performance Review" style="rounded=0;whiteSpace=wrap;html=1;" parent="1" vertex="1">
          <mxGeometry x="350" y="470" width="120" height="60" as="geometry" />
        </mxCell>
        <mxCell id="-TOhHkjBpiTDN5X-7kr8-30" value="Create Survey" style="rounded=0;whiteSpace=wrap;html=1;" parent="1" vertex="1">
          <mxGeometry x="350" y="540" width="120" height="60" as="geometry" />
        </mxCell>
        <mxCell id="-TOhHkjBpiTDN5X-7kr8-31" value="Profile" style="rounded=0;whiteSpace=wrap;html=1;" parent="1" vertex="1">
          <mxGeometry x="350" y="690" width="120" height="60" as="geometry" />
        </mxCell>
        <mxCell id="-TOhHkjBpiTDN5X-7kr8-38" value="Approve for&amp;nbsp;&lt;br&gt;vacation, bonus &amp;amp; resignation" style="whiteSpace=wrap;html=1;fontFamily=Times New Roman;" parent="1" vertex="1">
          <mxGeometry x="530" y="350" width="120" height="60" as="geometry" />
        </mxCell>
        <mxCell id="-TOhHkjBpiTDN5X-7kr8-39" value="Performance review" style="whiteSpace=wrap;html=1;fontFamily=Times New Roman;" parent="1" vertex="1">
          <mxGeometry x="530" y="420" width="120" height="60" as="geometry" />
        </mxCell>
        <mxCell id="-TOhHkjBpiTDN5X-7kr8-40" value="Apply for promotions of employee&amp;nbsp;" style="whiteSpace=wrap;html=1;fontFamily=Times New Roman;" parent="1" vertex="1">
          <mxGeometry x="530" y="490" width="120" height="60" as="geometry" />
        </mxCell>
        <mxCell id="-TOhHkjBpiTDN5X-7kr8-41" value="Profile" style="rounded=0;whiteSpace=wrap;html=1;" parent="1" vertex="1">
          <mxGeometry x="530" y="630" width="120" height="60" as="geometry" />
        </mxCell>
        <mxCell id="-TOhHkjBpiTDN5X-7kr8-47" value="Applying for&lt;br&gt;vacation/sick or resignation" style="whiteSpace=wrap;html=1;fontFamily=Times New Roman;" parent="1" vertex="1">
          <mxGeometry x="740" y="350" width="120" height="60" as="geometry" />
        </mxCell>
        <mxCell id="-TOhHkjBpiTDN5X-7kr8-48" value="Submit Survey,&amp;nbsp;Complaints" style="whiteSpace=wrap;html=1;fontFamily=Times New Roman;" parent="1" vertex="1">
          <mxGeometry x="740.0000000000001" y="420" width="120" height="60" as="geometry" />
        </mxCell>
        <mxCell id="-TOhHkjBpiTDN5X-7kr8-50" value="Profile" style="rounded=0;whiteSpace=wrap;html=1;" parent="1" vertex="1">
          <mxGeometry x="740" y="560" width="120" height="60" as="geometry" />
        </mxCell>
        <mxCell id="-TOhHkjBpiTDN5X-7kr8-59" value="" style="endArrow=none;html=1;rounded=0;" parent="1" source="-TOhHkjBpiTDN5X-7kr8-41" edge="1">
          <mxGeometry width="50" height="50" relative="1" as="geometry">
            <mxPoint x="590" y="670" as="sourcePoint" />
            <mxPoint x="590" y="770" as="targetPoint" />
            <Array as="points">
              <mxPoint x="590" y="750" />
            </Array>
          </mxGeometry>
        </mxCell>
        <mxCell id="-TOhHkjBpiTDN5X-7kr8-60" value="" style="endArrow=none;html=1;rounded=0;" parent="1" source="-TOhHkjBpiTDN5X-7kr8-50" edge="1">
          <mxGeometry width="50" height="50" relative="1" as="geometry">
            <mxPoint x="800" y="670" as="sourcePoint" />
            <mxPoint x="420" y="770" as="targetPoint" />
            <Array as="points">
              <mxPoint x="800" y="770" />
            </Array>
          </mxGeometry>
        </mxCell>
        <mxCell id="-TOhHkjBpiTDN5X-7kr8-63" value="Stop" style="ellipse;whiteSpace=wrap;html=1;" parent="1" vertex="1">
          <mxGeometry x="365" y="800" width="120" height="80" as="geometry" />
        </mxCell>
        <mxCell id="k0PD_N6KNMe-3F-BwP-U-1" value="Approve Resignation" style="rounded=0;whiteSpace=wrap;html=1;" vertex="1" parent="1">
          <mxGeometry x="30" y="420" width="120" height="60" as="geometry" />
        </mxCell>
        <mxCell id="k0PD_N6KNMe-3F-BwP-U-2" value="Approve Resignation" style="rounded=0;whiteSpace=wrap;html=1;" vertex="1" parent="1">
          <mxGeometry x="350" y="610" width="120" height="60" as="geometry" />
        </mxCell>
        <mxCell id="k0PD_N6KNMe-3F-BwP-U-3" value="Apply for Resignation" style="rounded=0;whiteSpace=wrap;html=1;" vertex="1" parent="1">
          <mxGeometry x="190" y="330" width="120" height="60" as="geometry" />
        </mxCell>
        <mxCell id="k0PD_N6KNMe-3F-BwP-U-4" value="Review Complaints" style="rounded=0;whiteSpace=wrap;html=1;" vertex="1" parent="1">
          <mxGeometry x="190" y="400" width="120" height="60" as="geometry" />
        </mxCell>
        <mxCell id="k0PD_N6KNMe-3F-BwP-U-5" value="Approve Bonus" style="rounded=0;whiteSpace=wrap;html=1;" vertex="1" parent="1">
          <mxGeometry x="190" y="470" width="120" height="60" as="geometry" />
        </mxCell>
        <mxCell id="k0PD_N6KNMe-3F-BwP-U-6" value="Approve Promotion" style="rounded=0;whiteSpace=wrap;html=1;" vertex="1" parent="1">
          <mxGeometry x="190" y="540" width="120" height="60" as="geometry" />
        </mxCell>
        <mxCell id="k0PD_N6KNMe-3F-BwP-U-7" value="View Survey Results" style="rounded=0;whiteSpace=wrap;html=1;" vertex="1" parent="1">
          <mxGeometry x="190" y="610" width="120" height="60" as="geometry" />
        </mxCell>
        <mxCell id="k0PD_N6KNMe-3F-BwP-U-31" value="Request for Bonus" style="rounded=0;whiteSpace=wrap;html=1;" vertex="1" parent="1">
          <mxGeometry x="530" y="560" width="120" height="60" as="geometry" />
        </mxCell>
        <mxCell id="k0PD_N6KNMe-3F-BwP-U-33" value="Performance review" style="whiteSpace=wrap;html=1;fontFamily=Times New Roman;" vertex="1" parent="1">
          <mxGeometry x="740" y="490" width="120" height="60" as="geometry" />
        </mxCell>
        <mxCell id="k0PD_N6KNMe-3F-BwP-U-36" value="" style="endArrow=none;html=1;rounded=0;" edge="1" parent="1" source="-TOhHkjBpiTDN5X-7kr8-31">
          <mxGeometry width="50" height="50" relative="1" as="geometry">
            <mxPoint x="410" y="800" as="sourcePoint" />
            <mxPoint x="410" y="770" as="targetPoint" />
          </mxGeometry>
        </mxCell>
      </root>
    </mxGraphModel>
  </diagram>
</mxfile>
